<?xml version="1.0" ?><svg data-name="Layer 1" id="Layer_1" viewBox="0 0 64 64" xmlns="http://www.w3.org/2000/svg"><defs><style>.cls-1{fill:none;stroke:#d13d61;stroke-linecap:round;stroke-linejoin:round;stroke-width:2px;}</style></defs><title/><path class="cls-1" d="M52,19V54a4,4,0,0,1-4,4H16a4,4,0,0,1-4-4V11a4,4,0,0,1,4-4H44l8,8H46a2,2,0,0,1-2-2V7"/><path class="cls-1" d="M32,30.08c-6.38,0-11.55,5.56-11.55,11.94a13.09,13.09,0,0,0,2.07,7h19a13.09,13.09,0,0,0,2.07-7C43.55,35.64,38.38,30.08,32,30.08Z"/><line class="cls-1" x1="32" x2="32" y1="31" y2="32"/><line class="cls-1" x1="23.94" x2="25.06" y1="34.44" y2="35.56"/><line class="cls-1" x1="40.06" x2="38.94" y1="34.44" y2="35.56"/><line class="cls-1" x1="21" x2="22" y1="42" y2="42"/><line class="cls-1" x1="42" x2="43" y1="42" y2="42"/><line class="cls-1" x1="32" x2="35.67" y1="49" y2="40.17"/></svg>